<svg width="48" height="48" viewBox="0 0 48 48" fill="none" xmlns="http://www.w3.org/2000/svg">
<path d="M40 24L40.3904 23.6877L40.6403 24L40.3904 24.3123L40 24ZM32.3904 13.6877L40.3904 23.6877L39.6096 24.3123L31.6096 14.3123L32.3904 13.6877ZM40.3904 24.3123L32.3904 34.3123L31.6096 33.6877L39.6096 23.6877L40.3904 24.3123Z" fill="white"/>
<path d="M8 24L7.60957 23.6877L7.35969 24L7.60957 24.3123L8 24ZM15.6096 13.6877L7.60957 23.6877L8.39043 24.3123L16.3904 14.3123L15.6096 13.6877ZM7.60957 24.3123L15.6096 34.3123L16.3904 33.6877L8.39043 23.6877L7.60957 24.3123Z" fill="white"/>
</svg>
